<svg xmlns="http://www.w3.org/2000/svg" viewBox="0 0 12.47 16.07"><defs><style>.cls-1{fill:#bd8f17;}</style></defs><g id="Layer_2" data-name="Layer 2"><g id="Layer_1-2" data-name="Layer 1"><path class="cls-1" d="M12.46,11.4l-.4.51a9.15,9.15,0,0,1-1.71,1.75,2.42,2.42,0,0,1-1.76.47c-.2,0-.37-.05-.14-.32a3.55,3.55,0,0,0,0-4.7A7.94,7.94,0,0,0,7.14,8a.5.5,0,0,1-.36-.62,1.25,1.25,0,0,1,.73.5c.21,0,.32.26.57.14a8,8,0,0,0,2.79-1.83,3.3,3.3,0,0,0,.58-3.54A3.54,3.54,0,0,0,8.56.38c-.78-.13-.93.07-.83.85,0,.18.08.21.23.12a1.11,1.11,0,0,1,.88-.13A2.25,2.25,0,0,1,10.52,2.8a2.14,2.14,0,0,1-.44,2.32,12.49,12.49,0,0,1-3.24,2H6.76c0-.77,0-1.54-.07-2.31a5,5,0,0,0,0-1.16v-.5s0,0,0-.06a.11.11,0,0,0,.08,0h.66l-.08-.71c-.22-.06-.47.08-.67-.12l-.11,0,.11,0A.41.41,0,0,1,7,1.79,1,1,0,0,0,6.54,0,1.17,1.17,0,0,0,5.27.5a1.12,1.12,0,0,0,.25,1.31c.11.11.21.24.14.4s-.22.09-.33.09H3.75c-.13,0-.34-.08-.39.12a.49.49,0,0,0,.19.48.69.69,0,0,0,.5.15h1.7V4.78c0,.68,0,1.35-.07,2,0,.25-.05.37-.33.22-.86-.47-1.73-.92-2.55-1.47a2.24,2.24,0,0,1-1-2.32A2.1,2.1,0,0,1,4.46,1.37c.07,0,.16.07.18,0a1.89,1.89,0,0,0,0-.82C4.57.31,4.33.37,4.16.37A3.72,3.72,0,0,0,.92,2.6,3.56,3.56,0,0,0,2.25,6.82,14.35,14.35,0,0,0,5.16,8.33l.38.17a.22.22,0,0,1,.08.32c0,.13-.16.06-.25,0S5,8.69,4.76,8.59a.3.3,0,0,0-.37.05,3.67,3.67,0,0,0-.46,5.17c.06.06.17.12.13.23s-.17.09-.26.1a2.49,2.49,0,0,1-1.88-.62,10.18,10.18,0,0,1-1.58-1.7L0,11.42v1.86a.39.39,0,0,0,.18.31,9.39,9.39,0,0,0,6.14,2.48,9.57,9.57,0,0,0,6-2.52.35.35,0,0,0,.13-.2C12.47,12.73,12.46,12.12,12.46,11.4ZM5.19,13c-.08.19-.15.48-.34.48s-.24-.3-.32-.48a2.93,2.93,0,0,1,1.1-3.83A11,11,0,0,1,5.19,13Zm1-10.77.22,0Zm-.4,1.5v0ZM5.69.89a.54.54,0,0,1,.7-.38.52.52,0,0,1,.31.73,2.25,2.25,0,0,1-.12.21h0l.12.05s0,0,0,.05,0,0,0-.05l-.12-.05-.13.09,0,0h0a1,1,0,0,1-.24,0A.53.53,0,0,1,5.69.89Zm.15,2.72a.66.66,0,0,1,0-.14A.66.66,0,0,0,5.84,3.61Zm.08-.41h0A1.58,1.58,0,0,1,6,3.35,1.58,1.58,0,0,0,5.92,3.2ZM6.5,4h0a1.28,1.28,0,0,0,0,.38A1.28,1.28,0,0,1,6.5,4Zm0,.42a.27.27,0,0,0,.06.1A.27.27,0,0,1,6.45,4.45Zm1.32,8.76c0,.1-.06.24-.19.25s-.16-.14-.21-.23a5.17,5.17,0,0,1-.5-2.29c0-.12,0-.25,0-.37h0c0-.33,0-.66,0-1,0-.08,0-.21.07-.24s.15.06.21.11a2.75,2.75,0,0,1,1,2.21A3.52,3.52,0,0,1,7.77,13.21Z"/><path class="cls-1" d="M9.08,2.7l0-.08a.42.42,0,0,1-.26.09.42.42,0,0,0,.26-.09l0-.08c.07-.36-.19-.21-.34-.22H7.33L7.41,3c.33,0,.66,0,1,0A.71.71,0,0,0,9.08,2.7Zm-.32,0a.1.1,0,0,1,0,0A.1.1,0,0,0,8.76,2.7Z"/></g></g></svg>